<svg width="31" height="23" viewBox="0 0 31 23" fill="none" xmlns="http://www.w3.org/2000/svg">
<g clip-path="url(#clip0_141_2)">
<path d="M30.1149 16.0577H0.570167C0.24934 16.0577 -0.0107422 16.2557 -0.0107422 16.4999V16.8654C-0.0107422 17.1097 0.24934 17.3077 0.570167 17.3077H30.1149C30.4358 17.3077 30.6958 17.1097 30.6958 16.8654V16.4999C30.6958 16.2557 30.4358 16.0577 30.1149 16.0577Z" fill="#54B72A"/>
<path d="M30.1149 18.8077H0.570167C0.24934 18.8077 -0.0107422 19.0057 -0.0107422 19.2499V19.6154C-0.0107422 19.8597 0.24934 20.0577 0.570167 20.0577H30.1149C30.4358 20.0577 30.6958 19.8597 30.6958 19.6154V19.2499C30.6958 19.0057 30.4358 18.8077 30.1149 18.8077Z" fill="#54B72A"/>
<path d="M30.1149 21.5577H0.570167C0.24934 21.5577 -0.0107422 21.7557 -0.0107422 21.9999V22.3654C-0.0107422 22.6097 0.24934 22.8077 0.570167 22.8077H30.1149C30.4358 22.8077 30.6958 22.6097 30.6958 22.3654V21.9999C30.6958 21.7557 30.4358 21.5577 30.1149 21.5577Z" fill="#54B72A"/>
<path d="M1.95801 12.9267L4.35126 5.75034L26.8627 5.90352L28.2982 13.4675L1.95801 12.9267Z" fill="black"/>
<path d="M14.9971 11.7268C15.0427 11.7268 15.0835 11.7198 15.1315 11.7198C15.1795 11.7198 15.2179 11.7268 15.2659 11.7268C17.2967 11.7268 18.8642 10.8588 18.7634 9.78648C18.6625 8.7142 17.0638 7.84616 15.1915 7.84616C15.1723 7.84616 15.1531 7.84848 15.1339 7.84848C15.1147 7.84848 15.0955 7.84616 15.0763 7.84616C13.2015 7.84616 11.6028 8.7142 11.5044 9.78648C11.406 10.8588 12.9711 11.7268 15.0019 11.7268" fill="#54B72A"/>
<path d="M22.5825 10.369C23.1754 10.369 23.6075 10.1091 23.5451 9.78648C23.4827 9.46387 22.9666 9.20392 22.3881 9.20392C21.8096 9.20392 21.3775 9.46387 21.4255 9.78648C21.4735 10.1091 21.9896 10.369 22.5825 10.369Z" fill="#54B72A"/>
<path d="M15.1289 14.4446H30.6166C30.6838 14.4446 30.7294 14.4168 30.7198 14.3843L27.8897 5.191C27.8657 5.14922 27.8201 5.12601 27.7721 5.13065H2.86256C2.81455 5.12601 2.76895 5.15154 2.74494 5.191L-0.0875918 14.382C-0.0971936 14.4168 -0.051585 14.4423 0.0156277 14.4423H15.1313L15.1289 14.4446ZM4.23802 7.70923C5.46225 7.70923 6.58566 7.13364 6.73689 6.42342H23.8977C24.0466 7.13364 25.17 7.70923 26.3966 7.70923L27.472 11.8637C26.2646 11.8637 25.3596 12.3303 25.3092 12.9453H5.32543C5.27502 12.3303 4.37245 11.8637 3.16262 11.8637L4.23802 7.70923Z" fill="#54B72A"/>
<path d="M8.04965 10.369C8.64256 10.369 9.16106 10.1091 9.20667 9.78648C9.25228 9.46387 8.8226 9.20392 8.24169 9.20392C7.66078 9.20392 7.14468 9.46387 7.08467 9.78648C7.02466 10.1091 7.45674 10.369 8.04725 10.369" fill="#54B72A"/>
<circle cx="15.2998" cy="6" r="5.5" fill="#F2E710" stroke="#C89F17"/>
<path d="M16.25 8.95997L13.25 6.63402V6.47569L14.8886 6.47896C14.8886 6.47896 16.25 6.48251 16.25 4.91222C16.25 3.5 14.8883 3.5 14.8883 3.5H13.8985" stroke="#8A4E00" stroke-miterlimit="10" stroke-linecap="round" stroke-linejoin="round"/>
<path d="M13.25 3.5H17.25" stroke="#8A4E00" stroke-miterlimit="10" stroke-linecap="round" stroke-linejoin="round"/>
<path d="M13.25 4.99356H17.25" stroke="#8A4E00" stroke-miterlimit="10" stroke-linecap="round" stroke-linejoin="round"/>
</g>
<defs>
<clipPath id="clip0_141_2">
<rect width="31" height="23" fill="white"/>
</clipPath>
</defs>
</svg>
